<svg width="157" height="68" viewBox="0 0 157 68" fill="none" xmlns="http://www.w3.org/2000/svg">
<path d="M67.1797 27.7852L60.9395 48H54.3125L63.7168 22.4062H67.918L67.1797 27.7852ZM72.3477 48L66.0898 27.7852L65.2812 22.4062H69.5352L78.9922 48H72.3477ZM72.1016 38.4551V43.2188H58.9707V38.4551H72.1016ZM90.5586 42.6562C90.5586 42.3281 90.4473 42.0469 90.2246 41.8125C90.0137 41.5664 89.6387 41.3438 89.0996 41.1445C88.5605 40.9336 87.8047 40.7227 86.832 40.5117C85.9062 40.3125 85.0332 40.0488 84.2129 39.7207C83.4043 39.3926 82.6953 38.9941 82.0859 38.5254C81.4766 38.0566 80.9961 37.5 80.6445 36.8555C80.3047 36.2109 80.1348 35.4727 80.1348 34.6406C80.1348 33.832 80.3047 33.0703 80.6445 32.3555C80.9961 31.6289 81.5059 30.9902 82.1738 30.4395C82.8535 29.877 83.6797 29.4375 84.6523 29.1211C85.625 28.793 86.7324 28.6289 87.9746 28.6289C89.6855 28.6289 91.1621 28.8926 92.4043 29.4199C93.6465 29.9355 94.6016 30.6621 95.2695 31.5996C95.9492 32.5254 96.2891 33.5977 96.2891 34.8164H90.3652C90.3652 34.3359 90.2832 33.9258 90.1191 33.5859C89.9668 33.2461 89.7148 32.9883 89.3633 32.8125C89.0117 32.625 88.543 32.5312 87.957 32.5312C87.5469 32.5312 87.1719 32.6074 86.832 32.7598C86.5039 32.9121 86.2402 33.123 86.041 33.3926C85.8418 33.6621 85.7422 33.9785 85.7422 34.3418C85.7422 34.5996 85.8008 34.834 85.918 35.0449C86.0469 35.2441 86.2402 35.4316 86.498 35.6074C86.7559 35.7715 87.084 35.9238 87.4824 36.0645C87.8809 36.1934 88.3613 36.3105 88.9238 36.416C90.2012 36.6504 91.3965 36.9844 92.5098 37.418C93.623 37.8516 94.5254 38.4668 95.2168 39.2637C95.9199 40.0605 96.2715 41.1328 96.2715 42.4805C96.2715 43.3242 96.0781 44.1035 95.6914 44.8184C95.3047 45.5215 94.748 46.1426 94.0215 46.6816C93.2949 47.209 92.4219 47.6191 91.4023 47.9121C90.3828 48.2051 89.2344 48.3516 87.957 48.3516C86.1406 48.3516 84.6055 48.0293 83.3516 47.3848C82.0977 46.7285 81.1484 45.9082 80.5039 44.9238C79.8711 43.9277 79.5547 42.9199 79.5547 41.9004H85.0742C85.0977 42.4863 85.2383 42.9668 85.4961 43.3418C85.7656 43.7168 86.123 43.9922 86.5684 44.168C87.0137 44.3438 87.5293 44.4316 88.1152 44.4316C88.6543 44.4316 89.0996 44.3555 89.4512 44.2031C89.8145 44.0508 90.0898 43.8457 90.2773 43.5879C90.4648 43.3184 90.5586 43.0078 90.5586 42.6562ZM104.85 21V48H98.9258V21H104.85ZM104.146 37.8398L102.758 37.875C102.758 36.5391 102.922 35.3086 103.25 34.1836C103.578 33.0586 104.047 32.0801 104.656 31.248C105.266 30.416 105.998 29.7715 106.854 29.3145C107.709 28.8574 108.658 28.6289 109.701 28.6289C110.639 28.6289 111.494 28.7637 112.268 29.0332C113.053 29.3027 113.727 29.7363 114.289 30.334C114.863 30.9316 115.303 31.7109 115.607 32.6719C115.924 33.6328 116.082 34.8047 116.082 36.1875V48H110.123V36.1523C110.123 35.3789 110.012 34.7812 109.789 34.3594C109.578 33.9258 109.273 33.627 108.875 33.4629C108.477 33.2871 107.99 33.1992 107.416 33.1992C106.725 33.1992 106.162 33.3164 105.729 33.5508C105.295 33.7852 104.961 34.1133 104.727 34.5352C104.504 34.9453 104.352 35.4316 104.27 35.9941C104.188 36.5566 104.146 37.1719 104.146 37.8398ZM125.205 45.7676L130.127 28.9805H136.49L128.844 50.8301C128.68 51.3105 128.463 51.8262 128.193 52.377C127.924 52.9395 127.555 53.4727 127.086 53.9766C126.617 54.4805 126.014 54.8906 125.275 55.207C124.549 55.5234 123.646 55.6816 122.568 55.6816C121.994 55.6816 121.572 55.6523 121.303 55.5938C121.045 55.5469 120.646 55.459 120.107 55.3301V51.0938C120.26 51.0938 120.389 51.0938 120.494 51.0938C120.611 51.0938 120.74 51.0938 120.881 51.0938C121.514 51.0938 122.018 51.0293 122.393 50.9004C122.779 50.7715 123.072 50.584 123.271 50.3379C123.482 50.0918 123.646 49.793 123.764 49.4414L125.205 45.7676ZM123.957 28.9805L127.701 42.2871L128.352 48.5625H124.379L117.611 28.9805H123.957ZM137.018 38.6836V38.3145C137.018 36.9199 137.217 35.6367 137.615 34.4648C138.014 33.2812 138.6 32.2559 139.373 31.3887C140.146 30.5215 141.102 29.8477 142.238 29.3672C143.375 28.875 144.688 28.6289 146.176 28.6289C147.676 28.6289 148.994 28.875 150.131 29.3672C151.279 29.8477 152.24 30.5215 153.014 31.3887C153.787 32.2559 154.373 33.2812 154.771 34.4648C155.17 35.6367 155.369 36.9199 155.369 38.3145V38.6836C155.369 40.0664 155.17 41.3496 154.771 42.5332C154.373 43.7051 153.787 44.7305 153.014 45.6094C152.24 46.4766 151.285 47.1504 150.148 47.6309C149.012 48.1113 147.699 48.3516 146.211 48.3516C144.723 48.3516 143.404 48.1113 142.256 47.6309C141.107 47.1504 140.146 46.4766 139.373 45.6094C138.6 44.7305 138.014 43.7051 137.615 42.5332C137.217 41.3496 137.018 40.0664 137.018 38.6836ZM142.941 38.3145V38.6836C142.941 39.3984 142.994 40.0664 143.1 40.6875C143.205 41.3086 143.381 41.8535 143.627 42.3223C143.873 42.7793 144.207 43.1367 144.629 43.3945C145.051 43.6523 145.578 43.7812 146.211 43.7812C146.832 43.7812 147.348 43.6523 147.758 43.3945C148.18 43.1367 148.514 42.7793 148.76 42.3223C149.006 41.8535 149.182 41.3086 149.287 40.6875C149.393 40.0664 149.445 39.3984 149.445 38.6836V38.3145C149.445 37.623 149.393 36.9727 149.287 36.3633C149.182 35.7422 149.006 35.1973 148.76 34.7285C148.514 34.248 148.18 33.873 147.758 33.6035C147.336 33.334 146.809 33.1992 146.176 33.1992C145.555 33.1992 145.033 33.334 144.611 33.6035C144.201 33.873 143.873 34.248 143.627 34.7285C143.381 35.1973 143.205 35.7422 143.1 36.3633C142.994 36.9727 142.941 37.623 142.941 38.3145Z" fill="#134E9B"/>
<path d="M49.0652 38.4764C49.9944 38.7556 50.9833 38.2294 51.1683 37.2769C51.7595 34.2335 51.5366 31.0764 50.5067 28.1301C49.2829 24.6289 46.9824 21.6049 43.9348 19.4911C40.8872 17.3774 37.2488 16.2824 33.5408 16.3629C29.8328 16.4435 26.2454 17.6955 23.2925 19.9397C20.3396 22.1838 18.1727 25.3049 17.1021 28.8559C16.0315 32.407 16.1123 36.2057 17.3327 39.708C18.5532 43.2104 20.8508 46.2366 23.8964 48.3532C26.4594 50.1345 29.4414 51.1947 32.532 51.44C33.4992 51.5168 34.2711 50.7049 34.2509 49.7349C34.2308 48.7648 33.4252 48.0062 32.4602 47.9052C30.1129 47.6597 27.8551 46.8256 25.9016 45.468C23.4651 43.7746 21.6271 41.3537 20.6507 38.5518C19.6743 35.7499 19.6097 32.711 20.4662 29.8701C21.3226 27.0293 23.0562 24.5324 25.4185 22.7371C27.7808 20.9418 30.6507 19.9402 33.6171 19.8757C36.5835 19.8113 39.4943 20.6873 41.9323 22.3783C44.3704 24.0693 46.2108 26.4885 47.1898 29.2894C47.9748 31.5351 48.1738 33.9338 47.7818 36.2612C47.6207 37.218 48.1359 38.1972 49.0652 38.4764Z" fill="#E81504"/>
<path d="M23.8815 29.7982C23.2746 29.5625 22.5855 29.8625 22.4116 30.4898C21.8557 32.4955 21.839 34.6202 22.3737 36.6461C23.009 39.0534 24.3903 41.1976 26.3194 42.7714C28.2485 44.3453 30.6264 45.2679 33.1121 45.4069C35.5979 45.546 38.0639 44.8945 40.1565 43.5457C42.2491 42.1969 43.861 40.2201 44.7609 37.8988C45.6608 35.5775 45.8026 33.0308 45.166 30.6239C44.5293 28.2171 43.1469 26.0736 41.217 24.5008C39.5927 23.1771 37.6508 22.3149 35.5945 21.9928C34.9514 21.8921 34.3936 22.3959 34.3576 23.0459C34.3216 23.6959 34.8218 24.2445 35.4622 24.3613C37.0209 24.6455 38.4897 25.3193 39.7277 26.3283C41.2717 27.5865 42.3776 29.3013 42.8869 31.2268C43.3962 33.1523 43.2828 35.1896 42.5628 37.0467C41.8429 38.9037 40.5534 40.4851 38.8793 41.5642C37.2052 42.6432 35.2324 43.1644 33.2438 43.0532C31.2552 42.9419 29.3529 42.2038 27.8096 40.9448C26.2663 39.6857 25.1613 37.9703 24.6531 36.0445C24.2455 34.5003 24.2384 32.8844 24.6233 31.3474C24.7814 30.7159 24.4883 30.0338 23.8815 29.7982Z" fill="#E81504"/>
<path d="M39.1635 38.1198C39.5211 38.3616 40.0108 38.2692 40.2156 37.8893C40.8695 36.6764 41.1933 35.3077 41.1472 33.9213C41.0925 32.2737 40.5182 30.6856 39.5064 29.384C38.4946 28.0825 37.0971 27.1343 35.5138 26.675C33.9305 26.2157 32.2426 26.2688 30.6913 26.8267C29.14 27.3847 27.8049 28.4189 26.8769 29.7814C25.9489 31.144 25.4756 32.7651 25.5245 34.4129C25.5735 36.0607 26.1423 37.6509 27.1496 38.9559C27.9971 40.054 29.1185 40.9029 30.3951 41.4214C30.795 41.5838 31.2313 41.3431 31.353 40.929C31.4747 40.5149 31.235 40.085 30.8393 39.9126C29.8777 39.4937 29.0329 38.8378 28.3869 38.0009C27.5811 36.9568 27.1261 35.6847 27.0869 34.3665C27.0477 33.0482 27.4264 31.7513 28.1688 30.6613C28.9112 29.5712 29.9793 28.7439 31.2203 28.2975C32.4613 27.8512 33.8117 27.8087 35.0783 28.1761C36.3449 28.5436 37.4629 29.3022 38.2724 30.3434C39.0818 31.3846 39.5413 32.6551 39.5851 33.9732C39.6201 35.0298 39.3867 36.0737 38.9122 37.009C38.717 37.394 38.8059 37.8781 39.1635 38.1198Z" fill="#E81504"/>
<path d="M30.0934 32.1117C29.8868 31.9605 29.5945 32.0045 29.4647 32.2252C29.0499 32.9305 28.8278 33.7358 28.825 34.5595C28.8217 35.5384 29.1284 36.4932 29.701 37.2871C30.2736 38.081 31.0829 38.6732 32.0127 38.979C32.9426 39.2848 33.9454 39.2884 34.8775 38.9893C35.8095 38.6902 36.623 38.1038 37.2013 37.314C37.7796 36.5242 38.0931 35.5717 38.0968 34.5928C38.1006 33.614 37.7944 32.6591 37.2222 31.8649C36.7406 31.1965 36.0914 30.6709 35.3436 30.3386C35.1097 30.2346 34.8463 30.369 34.7662 30.6122C34.6861 30.8553 34.82 31.1148 35.0513 31.2246C35.6141 31.4917 36.1029 31.8975 36.4699 32.4069C36.9277 33.0423 37.1727 33.8062 37.1697 34.5893C37.1667 35.3724 36.9159 36.1344 36.4532 36.7662C35.9906 37.398 35.3398 37.8672 34.5942 38.1065C33.8485 38.3457 33.0463 38.3429 32.3024 38.0982C31.5585 37.8536 30.9111 37.3798 30.453 36.7447C29.9949 36.1096 29.7496 35.3457 29.7522 34.5627C29.7543 33.9348 29.9157 33.3203 30.2179 32.7757C30.3422 32.5518 30.3001 32.2628 30.0934 32.1117Z" fill="#E81504"/>
<path d="M35.5544 36.2905C35.684 36.3958 35.8758 36.3769 35.9676 36.2375C36.2613 35.7918 36.4327 35.2746 36.4618 34.7381C36.4964 34.1007 36.3282 33.4686 35.9814 32.9326C35.6347 32.3966 35.1271 31.9841 34.5315 31.7543C33.9358 31.5245 33.2827 31.4893 32.6658 31.6535C32.0489 31.8178 31.4998 32.1731 31.0973 32.6687C30.6948 33.1642 30.4595 33.7745 30.4252 34.412C30.3909 35.0495 30.5593 35.6814 30.9063 36.2173C31.1983 36.6683 31.6042 37.0318 32.0806 37.2724C32.2296 37.3477 32.4054 37.2687 32.4654 37.1129C32.5254 36.9572 32.4466 36.7839 32.2996 36.7049C31.9416 36.5127 31.6363 36.2325 31.4137 35.8887C31.1361 35.46 31.0014 34.9545 31.0289 34.4445C31.0563 33.9345 31.2445 33.4463 31.5666 33.0498C31.8886 32.6534 32.3278 32.3691 32.8214 32.2377C33.3149 32.1063 33.8374 32.1345 34.3139 32.3183C34.7904 32.5022 35.1964 32.8321 35.4739 33.261C35.7513 33.6898 35.8858 34.1954 35.8581 34.7054C35.836 35.1143 35.7104 35.5092 35.4954 35.854C35.4071 35.9956 35.4249 36.1852 35.5544 36.2905Z" fill="#E81504"/>
</svg>
